<svg width="28" height="20" viewBox="0 0 28 20" fill="none" xmlns="http://www.w3.org/2000/svg">
<path d="M10.262 8.496C11.254 8.976 12.022 9.68 12.566 10.608C13.11 11.504 13.382 12.576 13.382 13.824C13.382 15.68 12.79 17.168 11.606 18.288C10.422 19.408 8.902 19.968 7.046 19.968C5.19 19.968 3.67 19.408 2.486 18.288C1.302 17.168 0.71 15.68 0.71 13.824C0.71 12.992 0.822 12.16 1.046 11.328C1.27 10.496 1.782 9.232 2.582 7.536L5.942 0.383998H12.662L10.262 8.496ZM24.182 8.496C25.174 8.976 25.942 9.68 26.486 10.608C27.03 11.504 27.302 12.576 27.302 13.824C27.302 15.68 26.71 17.168 25.526 18.288C24.342 19.408 22.822 19.968 20.966 19.968C19.11 19.968 17.59 19.408 16.406 18.288C15.222 17.168 14.63 15.68 14.63 13.824C14.63 12.992 14.742 12.16 14.966 11.328C15.19 10.496 15.702 9.232 16.502 7.536L19.862 0.383998H26.582L24.182 8.496Z" fill="#56A8DD"/>
</svg>
