<svg width="14" height="14" viewBox="0 0 14 14" fill="none" xmlns="http://www.w3.org/2000/svg">
<path fill-rule="evenodd" clip-rule="evenodd" d="M9.01853 7.23323C9.01853 6.62285 8.8062 6.10042 8.38155 5.66591C7.95689 5.23141 7.43385 5.01416 6.8124 5.01416C6.19096 5.01416 5.66792 5.23141 5.24326 5.66591C4.81861 6.10042 4.6011 6.62285 4.59075 7.23323C4.58039 7.8436 4.79789 8.36604 5.24326 8.80054C5.68863 9.23505 6.21167 9.4523 6.8124 9.4523C7.41313 9.4523 7.93618 9.23505 8.38155 8.80054C8.82692 8.36604 9.03924 7.8436 9.01853 7.23323ZM10.2148 7.23303C10.2148 8.17446 9.88336 8.98139 9.22049 9.65384C8.55761 10.3263 7.75492 10.6573 6.8124 10.647C5.86987 10.6366 5.062 10.3056 4.38877 9.65384C3.71554 9.00208 3.3841 8.19515 3.39446 7.23303C3.40482 6.27092 3.73625 5.46399 4.38877 4.81223C5.04129 4.16047 5.84916 3.82943 6.8124 3.81908C7.77564 3.80874 8.57833 4.13978 9.22049 4.81223C9.86265 5.48468 10.1941 6.29161 10.2148 7.23303ZM11.1628 3.67862C11.1628 3.89588 11.0851 4.08209 10.9297 4.23727C10.7744 4.39245 10.5828 4.47004 10.3549 4.47004C10.127 4.47004 9.9406 4.39245 9.7956 4.23727C9.6506 4.08209 9.57292 3.89588 9.56256 3.67862C9.5522 3.46137 9.62988 3.27516 9.7956 3.11998C9.96132 2.9648 10.1477 2.88721 10.3549 2.88721C10.562 2.88721 10.7537 2.9648 10.9297 3.11998C11.1058 3.27516 11.1835 3.46137 11.1628 3.67862ZM6.81338 1.77089H5.2287C5.02155 1.77089 4.7419 1.78123 4.38975 1.80193C4.0376 1.82262 3.74242 1.84848 3.5042 1.87951C3.26597 1.91055 3.05883 1.96745 2.88275 2.05021C2.59274 2.16401 2.33899 2.32953 2.12149 2.54679C1.90398 2.76404 1.73308 3.0175 1.6088 3.30717C1.54665 3.47269 1.49486 3.6796 1.45343 3.92789C1.412 4.17617 1.38093 4.47619 1.36022 4.82793C1.3395 5.17967 1.33432 5.45382 1.34468 5.65038C1.35504 5.84694 1.35504 6.15212 1.34468 6.56594C1.33432 6.97975 1.33432 7.20218 1.34468 7.23321C1.35504 7.26425 1.35504 7.48667 1.34468 7.90048C1.33432 8.3143 1.33432 8.61948 1.34468 8.81604C1.35504 9.0126 1.36022 9.28675 1.36022 9.63849C1.36022 9.99024 1.39129 10.2902 1.45343 10.5385L1.6088 11.1593C1.73308 11.4489 1.90398 11.7024 2.12149 11.9196C2.33899 12.1369 2.59274 12.3024 2.88275 12.4162C3.04847 12.4783 3.25562 12.5352 3.5042 12.5869C3.75277 12.6386 4.04796 12.6645 4.38975 12.6645C4.73155 12.6645 5.01119 12.6748 5.2287 12.6955C5.44621 12.7162 5.75174 12.7162 6.14533 12.6955C6.53891 12.6748 6.76159 12.6748 6.81338 12.6955C6.86516 12.7162 7.08267 12.7162 7.46589 12.6955C7.84912 12.6748 8.15466 12.6748 8.38252 12.6955C8.61038 12.7162 8.89003 12.7059 9.22147 12.6645C9.55291 12.6231 9.85327 12.5973 10.1226 12.5869C10.3919 12.5766 10.5938 12.5197 10.7285 12.4162C11.0185 12.3024 11.2774 12.1369 11.5053 11.9196C11.7331 11.7024 11.8989 11.4489 12.0024 11.1593C12.0646 10.9937 12.1164 10.7868 12.1578 10.5385C12.1992 10.2902 12.2303 9.99024 12.251 9.63849C12.2717 9.28675 12.2769 9.0126 12.2665 8.81604C12.2562 8.61948 12.2562 8.3143 12.2665 7.90048C12.2769 7.48667 12.2769 7.26425 12.2665 7.23321C12.2562 7.20218 12.2562 6.97975 12.2665 6.56594C12.2769 6.15212 12.2769 5.84694 12.2665 5.65038C12.2562 5.45382 12.251 5.17967 12.251 4.82793C12.251 4.47619 12.2199 4.17617 12.1578 3.92789L12.0024 3.30717C11.8885 3.0175 11.7228 2.76404 11.5053 2.54679C11.2878 2.32953 11.0288 2.16401 10.7285 2.05021C10.5627 1.98814 10.3608 1.93124 10.1226 1.87951C9.88434 1.82779 9.58398 1.80193 9.22147 1.80193C8.85896 1.80193 8.57931 1.79158 8.38252 1.77089C8.18573 1.7502 7.88019 1.7502 7.46589 1.77089C7.0516 1.79158 6.83409 1.79158 6.81338 1.77089ZM13.4619 7.23289C13.4619 8.55709 13.4463 9.47264 13.4153 9.97957C13.3635 11.1796 13.0061 12.1107 12.3433 12.7728C11.6804 13.4349 10.7534 13.7918 9.56232 13.8435C9.04445 13.8746 8.12783 13.8901 6.81243 13.8901C5.49704 13.8901 4.58042 13.8746 4.06255 13.8435C2.86109 13.7815 1.92893 13.4246 1.26606 12.7728C0.603182 12.121 0.245856 11.19 0.194069 9.97957C0.162997 9.47264 0.147461 8.55709 0.147461 7.23289C0.147461 5.90868 0.162997 4.99313 0.194069 4.48621C0.245856 3.28615 0.603182 2.35508 1.26606 1.69298C1.92893 1.03087 2.86109 0.673964 4.06255 0.622237C4.57006 0.591201 5.48668 0.575684 6.81243 0.575684C8.13819 0.575684 9.0548 0.591201 9.56232 0.622237C10.7638 0.68431 11.6908 1.04122 12.3433 1.69298C12.9958 2.34473 13.3531 3.2758 13.4153 4.48621C13.4463 4.99313 13.4619 5.90868 13.4619 7.23289Z" fill="white"/>
</svg>
