<svg width="18" height="11" viewBox="0 0 18 11" fill="none" xmlns="http://www.w3.org/2000/svg">
<path fill-rule="evenodd" clip-rule="evenodd" d="M17.1007 1.08573C17.2367 1.47069 16.7976 2.34753 15.7836 3.71628C15.6477 3.90876 15.4595 4.16539 15.2191 4.48619L14.733 5.12779C14.6389 5.25611 14.55 5.40047 14.4664 5.56087C14.3827 5.72127 14.3462 5.84958 14.3566 5.94582C14.3671 6.04206 14.4089 6.14365 14.4821 6.25058C14.5552 6.35751 14.6493 6.48583 14.7643 6.63554C14.8793 6.78525 15.0466 6.94564 15.2661 7.11674C15.287 7.12743 15.2975 7.13812 15.2975 7.14882C16.1233 7.92943 16.6826 8.58706 16.9753 9.12172L17.038 9.234C17.0589 9.27678 17.0798 9.35698 17.1007 9.4746C17.1217 9.59223 17.1164 9.69381 17.0851 9.77936C17.0537 9.86491 16.9805 9.94511 16.8655 10.02C16.7505 10.0948 16.5781 10.1322 16.3481 10.1322L14.1214 10.1804C13.975 10.2017 13.8078 10.1857 13.6196 10.1322C13.4314 10.0788 13.2799 10.0093 13.1649 9.92372L12.9924 9.82748C12.8147 9.69916 12.6108 9.50668 12.3808 9.25004C12.1509 8.9934 11.9522 8.7635 11.785 8.56033C11.6177 8.35715 11.44 8.18072 11.2518 8.03101C11.0637 7.8813 10.8964 7.83853 10.75 7.90269C10.7396 7.90269 10.7187 7.91338 10.6873 7.93477C10.656 7.95616 10.6037 7.99893 10.5305 8.06309C10.4573 8.12725 10.3946 8.2128 10.3423 8.31973C10.2901 8.42666 10.243 8.58171 10.2012 8.78489C10.1594 8.98806 10.1385 9.22331 10.1385 9.49064C10.1385 9.57619 10.128 9.65639 10.1071 9.73124C10.0862 9.80609 10.0653 9.85956 10.0444 9.89164L10.013 9.93976C9.9085 10.0574 9.7517 10.1215 9.54262 10.1322H8.53905C8.12089 10.1643 7.69752 10.1162 7.2689 9.98788C6.84029 9.85956 6.45351 9.70451 6.10853 9.52272C5.76355 9.34094 5.46562 9.14311 5.21472 8.92924C4.96383 8.71538 4.75475 8.54429 4.58749 8.41597L4.36796 8.19141C4.31569 8.13794 4.23729 8.04705 4.13275 7.91873C4.02821 7.79041 3.81914 7.52308 3.50552 7.11674C3.1919 6.71039 2.88352 6.25593 2.58035 5.75334C2.27719 5.25076 1.92176 4.62521 1.51406 3.87668C1.10636 3.12814 0.724796 2.31546 0.369364 1.43861C0.327548 1.34237 0.306641 1.26217 0.306641 1.19801C0.306641 1.13385 0.317094 1.08573 0.338002 1.05365L0.369364 1.00553C0.463449 0.887905 0.630709 0.829093 0.871149 0.829093L3.27031 0.813053C3.34348 0.823746 3.41143 0.839786 3.47416 0.861173C3.53688 0.882559 3.58392 0.909292 3.61528 0.941372L3.66233 0.973452C3.75641 1.03761 3.82436 1.13385 3.86618 1.26217C3.98117 1.56158 4.11707 1.86634 4.27388 2.17645C4.43069 2.48655 4.5509 2.73249 4.63453 2.91428L4.77566 3.17092C4.94292 3.53449 5.10496 3.84459 5.26177 4.10123C5.41857 4.35787 5.5597 4.56104 5.68515 4.71075C5.81059 4.86046 5.93081 4.97808 6.0458 5.06363C6.1608 5.14917 6.26011 5.19195 6.34374 5.19195C6.42737 5.19195 6.50577 5.17591 6.57895 5.14383L6.62599 5.09571C6.6469 5.07432 6.68349 5.01016 6.73576 4.90323C6.78803 4.7963 6.82462 4.65728 6.84552 4.48619L6.92393 3.74836C6.95529 3.42756 6.95529 3.05864 6.92393 2.6416C6.91347 2.39566 6.88734 2.17645 6.84552 1.98397C6.80371 1.79149 6.76712 1.65248 6.73576 1.56693L6.67304 1.47069C6.52668 1.26752 6.28102 1.1392 5.93604 1.08573C5.85241 1.06434 5.86809 0.989493 5.98308 0.861173C6.06671 0.75424 6.17648 0.663348 6.31238 0.588494C6.61554 0.438788 7.31071 0.369282 8.39792 0.379976C8.8788 0.390669 9.27081 0.428095 9.57398 0.492255C9.69942 0.524335 9.79874 0.567108 9.87191 0.620574C9.94509 0.674041 10.0078 0.743546 10.0601 0.829093C10.1124 0.91464 10.1385 1.01088 10.1385 1.11781C10.1385 1.22474 10.1489 1.35841 10.1698 1.51881C10.1908 1.67921 10.1908 1.84495 10.1698 2.01605C10.1489 2.18714 10.1385 2.401 10.1385 2.65764V3.39548L10.1228 3.7644C10.1124 3.94618 10.1124 4.09054 10.1228 4.19747L10.1542 4.55035C10.1646 4.67867 10.196 4.7963 10.2483 4.90323C10.3005 5.01016 10.3685 5.08501 10.4521 5.12779L10.5932 5.15987C10.6455 5.17056 10.7239 5.13848 10.8284 5.06363C10.933 4.98877 11.0427 4.88719 11.1577 4.75887C11.2727 4.63055 11.4243 4.42738 11.6125 4.14935C11.8006 3.87133 11.9993 3.55053 12.2083 3.18696C12.5533 2.56675 12.8669 1.89842 13.1492 1.18197C13.1701 1.11781 13.1962 1.06435 13.2276 1.02157C13.259 0.978799 13.2903 0.946719 13.3217 0.925332L13.4001 0.877213L13.5255 0.845133C13.6092 0.823746 13.6667 0.823746 13.698 0.845133L16.2069 0.829093C16.4369 0.797013 16.6251 0.80236 16.7715 0.845133C16.9178 0.887906 17.0067 0.941372 17.038 1.00553L17.1007 1.08573Z" fill="white"/>
</svg>
