<svg width="49" height="50" viewBox="0 0 49 50" fill="none" xmlns="http://www.w3.org/2000/svg">
<path fill-rule="evenodd" clip-rule="evenodd" d="M24.5 50C38.031 50 49 38.8071 49 25C49 11.1929 38.031 0 24.5 0C10.969 0 0 11.1929 0 25C0 38.8071 10.969 50 24.5 50Z" fill="#1E96C8"/>
<mask id="mask0" mask-type="alpha" maskUnits="userSpaceOnUse" x="10" y="11" width="28" height="29">
<rect x="10" y="11" width="28" height="29" fill="white"/>
</mask>
<g mask="url(#mask0)">
<path fill-rule="evenodd" clip-rule="evenodd" d="M34.4891 16.8761L30.7339 35.0738L30.4849 35.5867C30.4849 35.5867 30.2206 35.8933 29.8878 35.9774C29.5551 36.0615 28.6441 35.6241 28.6441 35.6241L23.2961 31.4841L20.3281 34.4404C20.3281 34.4404 19.9366 34.7608 19.5513 34.7608C19.1661 34.7608 18.8784 34.5208 18.8784 34.5208L16.8565 27.4005L11.2793 25.5573C11.2793 25.5573 10.4551 25.2854 10.4551 24.8795C10.4551 24.4735 11.2793 23.9358 11.2793 23.9358L33.1278 15.1857C33.1278 15.1857 33.7997 15.0487 34.1798 15.4418C34.5598 15.8348 34.4891 16.8761 34.4891 16.8761ZM29.4345 19.0704L18.3904 26.281L17.5442 26.8489L19.1024 33.0365C19.1024 33.0365 19.2482 33.5251 19.4925 33.5251C19.7368 33.5251 20.0118 33.0365 20.0118 33.0365L20.4851 28.3942C20.4851 28.3942 30.002 19.5086 30.0977 19.3673C30.1935 19.226 30.2454 19.0704 30.2454 19.0704C30.2454 19.0704 30.1715 18.8942 30.002 18.8942C29.8325 18.8942 29.4345 19.0704 29.4345 19.0704Z" fill="white"/>
</svg>
