<svg width="50" height="50" viewBox="0 0 50 50" fill="none" xmlns="http://www.w3.org/2000/svg">
<path fill-rule="evenodd" clip-rule="evenodd" d="M25 50C38.8071 50 50 38.8071 50 25C50 11.1929 38.8071 0 25 0C11.1929 0 0 11.1929 0 25C0 38.8071 11.1929 50 25 50Z" fill="#25D366"/>
<path fill-rule="evenodd" clip-rule="evenodd" d="M25.5607 38.7508H25.5548C23.1381 38.75 20.7636 38.1465 18.6545 37.0017L11 39L13.0485 31.5535C11.7849 29.3741 11.12 26.9021 11.1211 24.3693C11.1242 16.4462 17.6017 10 25.5606 10C29.4233 10.0017 33.0487 11.4982 35.7749 14.2145C38.5009 16.9306 40.0015 20.541 40 24.3807C39.9968 32.302 33.5219 38.7475 25.5607 38.7508ZM18.7575 34.8633L19.2085 35.1308C21.1049 36.2558 23.2788 36.8511 25.4952 36.8519H25.5002C32.3082 36.8519 37.8491 31.3128 37.8519 24.5046C37.8531 21.2052 36.5697 18.1031 34.2376 15.7692C31.9055 13.4353 28.8043 12.1493 25.5051 12.1482C18.6919 12.1482 13.1509 17.6867 13.1482 24.4946C13.1472 26.8276 13.8003 29.0997 15.0367 31.0656L15.3304 31.5327L14.0826 36.0891L18.7575 34.8633ZM33.5017 27.8913C33.4093 27.7369 33.1627 27.6443 32.7927 27.459C32.4227 27.2738 30.6038 26.3787 30.2646 26.255C29.9256 26.1317 29.6788 26.07 29.4322 26.4403C29.1856 26.8107 28.4766 27.6443 28.2607 27.8913C28.0449 28.1382 27.8291 28.1692 27.4593 27.9839C27.0893 27.7986 25.8972 27.4079 24.4841 26.1472C23.3842 25.1659 22.6417 23.9541 22.4259 23.5837C22.2101 23.2132 22.4029 23.013 22.588 22.8285C22.7545 22.6626 22.9581 22.3962 23.1431 22.1802C23.328 21.9641 23.3897 21.8096 23.513 21.5629C23.6363 21.3158 23.5747 21.0998 23.4821 20.9145C23.3897 20.7293 22.6498 18.9078 22.3414 18.1669C22.0411 17.4453 21.7362 17.5431 21.5091 17.5317C21.2935 17.5208 21.0466 17.5186 20.8 17.5186C20.5533 17.5186 20.1525 17.6112 19.8135 17.9817C19.4743 18.3521 18.5186 19.2474 18.5186 21.0687C18.5186 22.8902 19.8442 24.6498 20.0293 24.8967C20.2142 25.1438 22.638 28.8815 26.3494 30.4843C27.2321 30.8656 27.9212 31.0934 28.4585 31.2639C29.3447 31.5456 30.1514 31.5058 30.7887 31.4105C31.4996 31.3043 32.9776 30.5154 33.286 29.651C33.5942 28.7865 33.5942 28.0455 33.5017 27.8913Z" fill="#FDFDFD"/>
</svg>
