<svg width="49" height="50" viewBox="0 0 49 50" fill="none" xmlns="http://www.w3.org/2000/svg">
<path fill-rule="evenodd" clip-rule="evenodd" d="M24.5 50C38.031 50 49 38.8071 49 25C49 11.1929 38.031 0 24.5 0C10.969 0 0 11.1929 0 25C0 38.8071 10.969 50 24.5 50Z" fill="#7B519C"/>
<mask id="mask0" mask-type="alpha" maskUnits="userSpaceOnUse" x="10" y="10" width="28" height="29">
<rect x="10" y="10" width="28" height="29" fill="white"/>
</mask>
<g mask="url(#mask0)">
<path fill-rule="evenodd" clip-rule="evenodd" d="M22.5424 11.4304C22.5243 11.9385 22.9073 12.3656 23.3979 12.3843C31.1455 12.68 34.8891 16.828 34.8891 25.1453C34.8891 25.6538 35.287 26.066 35.7779 26.066C36.2688 26.066 36.6668 25.6538 36.6668 25.1453C36.6668 15.8497 32.1789 10.877 23.4634 10.5443C22.9728 10.5256 22.5604 10.9223 22.5424 11.4304ZM18.6809 29.9257C22.2672 33.9327 30.1177 37.5061 30.1177 37.5061C30.1177 37.5061 30.6774 37.6681 31.297 37.6681C31.9167 37.6681 32.7398 37.2546 32.7398 37.2546C32.7398 37.2546 33.5616 36.584 34.8174 35.0402C36.0732 33.4965 34.6913 31.7639 34.6913 31.7639C34.6913 31.7639 32.4823 29.7132 30.8025 28.7214C29.1228 27.7296 28.2765 28.9828 28.2765 28.9828C28.2765 28.9828 27.5732 29.9257 27.0372 30.4621C26.5012 30.9985 25.1136 30.4621 25.1136 30.4621C25.1136 30.4621 22.0354 28.9828 21.0293 27.7443C20.0232 26.5059 19.2852 25.3457 18.529 23.615C17.7727 21.8843 18.529 21.0823 18.529 21.0823C18.529 21.0823 18.8377 20.865 19.8678 20.0199C20.898 19.1748 20.0138 17.4893 20.0138 17.4893C20.0138 17.4893 18.2083 14.6036 17.1477 13.0212C16.0871 11.4389 14.3701 12.713 14.3701 12.713L12.5639 14.4055C10.9933 15.8773 11.9254 18.5187 11.9254 18.5187C11.9254 18.5187 15.0946 25.9187 18.6809 29.9257ZM29.3859 23.639C29.8755 23.6764 30.3016 23.2956 30.3377 22.7886C30.5618 19.6415 28.9139 17.7139 25.6869 17.2675C25.2003 17.2002 24.7531 17.5542 24.6881 18.0581C24.6232 18.5621 24.9649 19.0252 25.4515 19.0925C27.777 19.4142 28.7171 20.5139 28.5648 22.6532C28.5287 23.1602 28.8963 23.6016 29.3859 23.639ZM24.4339 15.7376C23.9437 15.7095 23.5684 15.2751 23.5956 14.7674C23.6228 14.2598 24.0422 13.8711 24.5324 13.8992C30.433 14.2384 33.514 17.6378 33.514 23.8018C33.514 24.3103 33.1161 24.7224 32.6252 24.7224C32.1343 24.7224 31.7363 24.3103 31.7363 23.8018C31.7363 18.6119 29.3893 16.0225 24.4339 15.7376Z" fill="white"/>
</svg>
