<svg width="192" height="29" viewBox="0 0 192 29" fill="none" xmlns="http://www.w3.org/2000/svg">
<path d="M99.1032 2.96158V7.68762H97.2127C97.1778 7.1235 97.1168 6.6595 97.0299 6.3016C96.943 5.94071 96.8192 5.63692 96.6545 5.39064C96.4579 5.10134 96.2008 4.89512 95.8881 4.77496C95.5763 4.65481 94.9777 4.59473 94.0931 4.59473H92.5987V7.75665H93.0494C93.5727 7.75665 93.943 7.63096 94.1537 7.37872C94.3645 7.12648 94.472 6.67995 94.472 6.0353V5.93517H95.9286V11.1938H94.472C94.4487 10.389 94.3442 9.86744 94.1537 9.63011C93.9662 9.38938 93.602 9.26922 93.0666 9.26922H92.5987V11.867C92.5987 12.3455 92.6593 12.6288 92.7806 12.7209C92.9019 12.8155 93.159 12.8611 93.5495 12.8611H94.1937V14.4938H87.2734V12.8611H87.8574C88.2414 12.8611 88.4956 12.8155 88.6177 12.7264C88.7386 12.6378 88.7992 12.377 88.7992 11.9531V11.867V5.57428C88.7992 5.12733 88.7416 4.85251 88.6285 4.7494C88.5162 4.64629 88.253 4.59473 87.8428 4.59473H87.2729V2.96201H99.1032V2.96158ZM110.179 2.96158V4.59431H109.609C109.193 4.59431 108.925 4.64884 108.809 4.75749C108.693 4.86657 108.635 5.13841 108.635 5.57684V11.8696C108.635 12.3135 108.696 12.5884 108.815 12.6974C108.934 12.8061 109.199 12.8606 109.61 12.8606H110.18V14.4934H103.259V12.8606H103.837C104.241 12.8606 104.505 12.8061 104.623 12.6974C104.742 12.5884 104.802 12.3135 104.802 11.8696V5.57684C104.802 5.13883 104.745 4.86657 104.629 4.75749C104.514 4.64884 104.247 4.59431 103.837 4.59431H103.259V2.96158H110.179ZM117.937 4.76602C117.297 4.76602 116.809 4.98076 116.471 5.40769C116.133 5.8376 115.962 6.45882 115.962 7.27817V7.32716H114.245V2.96201H126.491V7.32716H124.791V7.27817C124.791 6.46478 124.621 5.84314 124.28 5.41365C123.939 4.98119 123.444 4.76644 122.799 4.76644H122.294V11.8696C122.294 12.3106 122.351 12.5884 122.47 12.6974C122.588 12.8061 122.854 12.8606 123.265 12.8606H124.236V14.4934H116.586V12.8606H117.488C117.878 12.8606 118.133 12.815 118.257 12.723C118.381 12.6284 118.442 12.3451 118.442 11.8696V4.76644H117.937V4.76602ZM136.268 2.96158L140.55 10.7294V5.57684C140.55 5.11284 140.489 4.83206 140.368 4.7379C140.246 4.64331 139.989 4.59473 139.596 4.59473H138.937V2.96201H144.054V4.59473H143.641C143.233 4.59473 142.973 4.64629 142.857 4.7494C142.741 4.85251 142.684 5.13031 142.684 5.57727V14.4938H138.691L134.167 6.23044V11.87C134.167 12.317 134.225 12.5948 134.341 12.7004C134.457 12.8065 134.719 12.8606 135.124 12.8606H135.641V14.4934H130.507V12.8606H131.077C131.487 12.8606 131.753 12.8061 131.872 12.6974C131.99 12.5884 132.051 12.3135 132.051 11.8696V5.57684C132.051 5.13883 131.993 4.86657 131.878 4.75749C131.762 4.64884 131.494 4.59431 131.077 4.59431H130.507V2.96158H136.268ZM160.229 2.96158V7.25772H158.388C158.269 6.69913 158.142 6.2641 158.009 5.95179C157.876 5.6399 157.715 5.38766 157.524 5.19849C157.301 4.97778 157.032 4.82311 156.717 4.73151C156.399 4.6399 155.887 4.59388 155.179 4.59388H154.832H153.341V7.7558H153.789C154.315 7.7558 154.685 7.63011 154.896 7.37787C155.107 7.12563 155.214 6.6791 155.214 6.03445V5.93432H156.671V11.193H155.214C155.191 10.3881 155.087 9.86658 154.896 9.62926C154.708 9.38852 154.344 9.26837 153.806 9.26837H153.341V12.8602H155.402C156.2 12.8602 156.749 12.8116 157.053 12.717C157.353 12.6225 157.588 12.4593 157.753 12.23C157.932 11.9552 158.077 11.6199 158.18 11.2245C158.285 10.8291 158.354 10.331 158.389 9.73237H160.297V14.4929H148.017V12.8602H148.601C148.985 12.8602 149.239 12.8146 149.361 12.7256C149.482 12.6369 149.543 12.3762 149.543 11.9522V11.8662V5.57343C149.543 5.12648 149.485 4.85166 149.372 4.74855C149.259 4.64544 148.996 4.59388 148.586 4.59388H148.017V2.96116H160.229V2.96158ZM165.556 10.2479H167.238C167.515 11.1359 167.972 11.8317 168.614 12.3331C169.256 12.8342 170.011 13.0835 170.881 13.0835C171.404 13.0835 171.826 12.9718 172.141 12.7511C172.457 12.5304 172.616 12.2411 172.616 11.8832C172.616 11.3306 171.93 10.8666 170.558 10.4912C170.109 10.374 169.76 10.2765 169.505 10.1964C168.681 9.95009 168.045 9.74089 167.6 9.56918C167.152 9.39449 166.831 9.2313 166.634 9.08218C166.166 8.73279 165.819 8.3489 165.597 7.92793C165.374 7.50399 165.261 7.02593 165.261 6.48737C165.261 5.33014 165.695 4.39363 166.562 3.68336C167.426 2.97309 168.571 2.61816 169.994 2.61816C170.716 2.61816 171.393 2.68676 172.02 2.82737C172.644 2.96755 173.251 3.18271 173.838 3.47458L174.154 2.89298H175.824V6.89725H173.865C173.674 6.08089 173.312 5.47373 172.78 5.07279C172.251 4.67441 171.543 4.47415 170.655 4.47415C170.135 4.47415 169.707 4.59175 169.371 4.82652C169.036 5.06171 168.869 5.34761 168.869 5.68847C168.869 6.20403 169.514 6.59346 170.803 6.85422C171.118 6.92282 171.363 6.97437 171.54 7.01443C173.332 7.42389 174.59 7.93092 175.313 8.53807C176.035 9.14523 176.397 9.97012 176.397 11.0183C176.397 12.181 175.951 13.109 175.064 13.7997C174.174 14.4899 172.977 14.8363 171.47 14.8363C170.782 14.8363 170.118 14.7592 169.481 14.6041C168.842 14.4525 168.212 14.2177 167.585 13.9054L167.152 14.5441H165.556V10.2479ZM181.159 10.2479H182.841C183.119 11.1359 183.576 11.8317 184.218 12.3331C184.859 12.8342 185.614 13.0835 186.484 13.0835C187.007 13.0835 187.43 12.9718 187.744 12.7511C188.059 12.5304 188.219 12.2411 188.219 11.8832C188.219 11.3306 187.534 10.8666 186.161 10.4912C185.712 10.374 185.363 10.2765 185.108 10.1964C184.284 9.95009 183.648 9.74089 183.203 9.56918C182.755 9.39449 182.434 9.2313 182.237 9.08218C181.769 8.73279 181.422 8.3489 181.2 7.92793C180.978 7.50399 180.865 7.02593 180.865 6.48737C180.865 5.33014 181.298 4.39363 182.165 3.68336C183.03 2.97309 184.175 2.61816 185.597 2.61816C186.32 2.61816 186.997 2.68676 187.623 2.82737C188.248 2.96755 188.855 3.18271 189.442 3.47458L189.757 2.89298H191.428V6.89725H189.468C189.277 6.08089 188.916 5.47373 188.384 5.07279C187.855 4.67441 187.147 4.47415 186.259 4.47415C185.739 4.47415 185.311 4.59175 184.976 4.82652C184.64 5.06171 184.473 5.34761 184.473 5.68847C184.473 6.20403 185.117 6.59346 186.407 6.85422C186.722 6.92282 186.968 6.97437 187.144 7.01443C188.937 7.42389 190.194 7.93092 190.916 8.53807C191.639 9.14523 192 9.97012 192 11.0183C192 12.181 191.556 13.109 190.668 13.7997C189.777 14.4899 188.58 14.8363 187.074 14.8363C186.386 14.8363 185.721 14.7592 185.085 14.6041C184.446 14.4525 183.816 14.2177 183.189 13.9054L182.755 14.5441H181.16V10.2479H181.159Z" fill="#3C3C3B"/>
<path d="M87.3892 25.088H88.0525C88.1614 25.4684 88.3415 25.767 88.5941 25.9815C88.8475 26.1964 89.1443 26.3032 89.4869 26.3032C89.6931 26.3032 89.8591 26.2551 89.9839 26.1608C90.1078 26.0665 90.1704 25.9422 90.1704 25.7887C90.1704 25.5521 89.9003 25.3533 89.3591 25.192C89.1833 25.1416 89.0452 25.1 88.9449 25.0658C88.6207 24.9604 88.3694 24.8708 88.1945 24.7973C88.0174 24.7224 87.8917 24.6526 87.8141 24.5888C87.6293 24.4391 87.4925 24.2745 87.405 24.0943C87.3176 23.9126 87.2729 23.7074 87.2729 23.4772C87.2729 22.9813 87.444 22.5801 87.7849 22.2755C88.1259 21.9709 88.5761 21.8188 89.1374 21.8188C89.4221 21.8188 89.6884 21.8479 89.935 21.9085C90.1816 21.9686 90.4204 22.0606 90.6515 22.1858L90.7755 21.9367H91.4337V23.6524H90.6618C90.5864 23.3025 90.4436 23.0423 90.2347 22.8708C90.0268 22.7003 89.7472 22.6143 89.3981 22.6143C89.1927 22.6143 89.0246 22.6647 88.8921 22.7654C88.7601 22.8657 88.694 22.9887 88.694 23.1347C88.694 23.3557 88.9479 23.5225 89.456 23.6344C89.5799 23.6635 89.6764 23.6861 89.7459 23.7032C90.4517 23.8789 90.9474 24.0961 91.2321 24.3563C91.5169 24.6166 91.6592 24.9702 91.6592 25.419C91.6592 25.9172 91.4834 26.3152 91.1344 26.6105C90.7836 26.9064 90.3119 27.0547 89.7184 27.0547C89.4474 27.0547 89.1854 27.0219 88.935 26.9553C88.6837 26.8902 88.435 26.7894 88.188 26.6558L88.0169 26.9295H87.3883V25.088H87.3892ZM94.6437 24.1086H94.9443C95.2612 24.1086 95.4842 24.0536 95.615 23.9417C95.7458 23.8299 95.8123 23.6422 95.8123 23.3783C95.8123 23.1292 95.7496 22.9526 95.6253 22.8491C95.5014 22.746 95.2831 22.6942 94.9722 22.6942H94.6437V24.1086ZM95.5194 21.9658C96.1617 21.9658 96.6334 22.0777 96.934 22.2995C97.2329 22.5232 97.3834 22.8703 97.3834 23.3427C97.3834 23.8179 97.2338 24.165 96.9349 24.3873C96.6356 24.6092 96.1639 24.7201 95.5194 24.7201H94.6373V25.7832C94.6373 25.9745 94.6596 26.0938 94.7055 26.1391C94.7522 26.1844 94.8534 26.2075 95.0117 26.2075H95.2719V26.9073H92.5121V26.2075H92.7415C92.9028 26.2075 93.0061 26.1844 93.0516 26.1391C93.0975 26.0938 93.1198 25.9745 93.1198 25.7832V23.0839C93.1198 22.8911 93.0975 22.7733 93.0533 22.7294C93.0083 22.685 92.9049 22.6633 92.7415 22.6633H92.5121V21.9663H95.5194V21.9658ZM100.982 22.5694C100.672 22.5694 100.447 22.7169 100.305 23.0104C100.164 23.3034 100.094 23.7763 100.094 24.4252C100.094 25.0871 100.165 25.5655 100.304 25.8613C100.444 26.1562 100.668 26.3032 100.975 26.3032C101.287 26.3032 101.512 26.1571 101.653 25.8636C101.793 25.5715 101.863 25.0991 101.863 24.4469C101.863 23.7892 101.793 23.3127 101.653 23.0146C101.512 22.7178 101.289 22.5694 100.982 22.5694ZM98.3169 24.44C98.3169 23.6228 98.5532 22.9804 99.024 22.5154C99.4957 22.0499 100.148 21.8184 100.979 21.8184C101.807 21.8184 102.456 22.0504 102.927 22.5154C103.397 22.9804 103.633 23.6228 103.633 24.44C103.633 25.2577 103.397 25.8969 102.925 26.3596C102.454 26.8222 101.801 27.0543 100.967 27.0543C100.142 27.0543 99.4936 26.8222 99.0232 26.3572C98.5532 25.8923 98.3169 25.2526 98.3169 24.44ZM105.139 25.7818V23.0839C105.139 22.8911 105.116 22.7733 105.072 22.7294C105.028 22.685 104.924 22.6633 104.761 22.6633H104.531V21.9663H107.687C108.245 21.9663 108.661 22.0679 108.935 22.2718C109.21 22.4756 109.347 22.7834 109.347 23.1971C109.347 23.4744 109.263 23.7088 109.094 23.8978C108.925 24.0883 108.686 24.2168 108.378 24.287C108.689 24.3277 108.9 24.4308 109.011 24.5939C109.122 24.7585 109.176 25.1352 109.176 25.7222C109.176 25.9001 109.19 26.0226 109.217 26.0906C109.246 26.1594 109.291 26.1936 109.356 26.1936C109.418 26.1936 109.463 26.152 109.494 26.0674C109.523 25.9838 109.538 25.8562 109.538 25.6857C109.538 25.6686 109.537 25.6413 109.535 25.6025C109.532 25.5646 109.531 25.5364 109.531 25.5165H109.995C109.995 25.5387 109.997 25.5706 109.999 25.6159C110.001 25.6602 110.002 25.6921 110.002 25.7143C110.002 26.1747 109.915 26.5084 109.738 26.7159C109.563 26.923 109.279 27.0265 108.888 27.0265C108.472 27.0265 108.169 26.9332 107.979 26.7464C107.789 26.5597 107.694 26.263 107.694 25.8553V25.4416C107.694 25.1116 107.653 24.9018 107.571 24.8121C107.491 24.7224 107.323 24.6771 107.066 24.6771H106.655V25.7827C106.655 25.9755 106.678 26.0947 106.724 26.14C106.769 26.1853 106.872 26.2084 107.03 26.2084H107.291V26.9082H104.531V26.2084H104.761C104.922 26.2084 105.025 26.1853 105.071 26.14C105.116 26.0933 105.139 25.9745 105.139 25.7818ZM106.642 24.0055H107.044C107.325 24.0055 107.524 23.9565 107.638 23.8595C107.754 23.7624 107.81 23.5993 107.81 23.3723C107.81 23.1218 107.758 22.9466 107.653 22.8458C107.547 22.7451 107.361 22.6947 107.095 22.6947H106.642V24.0055H106.642ZM111.921 22.7391C111.669 22.7391 111.477 22.8311 111.344 23.0141C111.21 23.198 111.143 23.4647 111.143 23.8156V23.8364H110.467V21.9658H115.29V23.8364H114.621V23.8156C114.621 23.4671 114.554 23.2008 114.419 23.0164C114.285 22.8311 114.09 22.7391 113.836 22.7391H113.637V25.7832C113.637 25.9722 113.66 26.0915 113.706 26.1377C113.754 26.1844 113.858 26.2075 114.02 26.2075H114.402V26.9073H111.39V26.2075H111.745C111.899 26.2075 111.999 26.1881 112.047 26.1488C112.097 26.1081 112.121 25.9866 112.121 25.7827V22.7386H111.921V22.7391ZM120.723 24.6092L120.306 23.113L119.916 24.6092H120.723ZM120.549 26.9073V26.2075H120.756C120.931 26.2075 121.036 26.1978 121.075 26.177C121.114 26.1562 121.133 26.1178 121.133 26.06C121.133 26.0208 121.131 25.9842 121.125 25.9496C121.12 25.914 121.113 25.8812 121.104 25.8465L120.94 25.3159H119.705L119.563 25.7883C119.538 25.8608 119.521 25.9172 119.513 25.9579C119.504 25.9995 119.499 26.0365 119.499 26.0698C119.499 26.1141 119.526 26.1474 119.582 26.1714C119.638 26.195 119.717 26.207 119.819 26.207H120.046V26.9068H117.996V26.207H118.165C118.282 26.207 118.379 26.1677 118.458 26.0882C118.537 26.0083 118.605 25.8798 118.663 25.6991L119.869 21.9653H121.527L122.601 25.6843C122.675 25.9297 122.741 26.0781 122.801 26.1298C122.862 26.1811 122.958 26.207 123.091 26.207H123.332V26.9068H120.549V26.9073ZM125.974 21.9658L127.661 25.2946V23.0862C127.661 22.8874 127.637 22.7673 127.589 22.7266C127.541 22.6864 127.44 22.6651 127.285 22.6651H127.025V21.9653H129.041V22.6651H128.878C128.717 22.6651 128.615 22.6873 128.569 22.7312C128.524 22.7751 128.501 22.8944 128.501 23.0857V26.9068H126.929L125.147 23.3658V25.7827C125.147 25.9741 125.169 26.0933 125.215 26.1386C125.26 26.1839 125.364 26.207 125.523 26.207H125.727V26.9068H123.705V26.207H123.929C124.091 26.207 124.196 26.1839 124.242 26.1372C124.289 26.0906 124.313 25.9727 124.313 25.7827V23.0862C124.313 22.8985 124.29 22.7821 124.245 22.7349C124.199 22.6882 124.093 22.6651 123.929 22.6651H123.705V21.9653H125.974V21.9658ZM132.323 21.9658C133.24 21.9658 133.92 22.1682 134.364 22.5736C134.808 22.9785 135.03 23.5983 135.03 24.4331C135.03 25.2701 134.808 25.8909 134.363 26.2972C133.918 26.7034 133.238 26.9073 132.323 26.9073H129.831V26.2075H130.06C130.212 26.2075 130.313 26.1881 130.36 26.1497C130.409 26.1118 130.432 26.0013 130.432 25.8197V25.7832V23.0867C130.432 22.8953 130.409 22.7761 130.365 22.7321C130.32 22.6878 130.217 22.6661 130.055 22.6661H129.831V21.9663H132.323V21.9658ZM131.962 26.1853H132.323C132.655 26.1853 132.893 26.0513 133.038 25.7827C133.182 25.5137 133.254 25.0645 133.254 24.434C133.254 23.8045 133.182 23.3538 133.038 23.0839C132.893 22.8153 132.655 22.6799 132.323 22.6799H131.962V26.1853ZM140.891 21.9658V22.6656H140.667C140.503 22.6656 140.397 22.6887 140.351 22.7354C140.306 22.7821 140.283 22.8985 140.283 23.0867V25.7832C140.283 25.9732 140.307 26.0915 140.353 26.1377C140.4 26.1844 140.505 26.2075 140.667 26.2075H140.891V26.9073H138.165V26.2075H138.393C138.552 26.2075 138.655 26.1844 138.703 26.1377C138.749 26.091 138.773 25.9732 138.773 25.7832V23.0867C138.773 22.899 138.75 22.7825 138.705 22.7354C138.66 22.6887 138.554 22.6656 138.393 22.6656H138.165V21.9658H140.891ZM143.971 21.9658L145.657 25.2946V23.0862C145.657 22.8874 145.633 22.7673 145.585 22.7266C145.538 22.6864 145.437 22.6651 145.282 22.6651H145.022V21.9653H147.037V22.6651H146.874C146.714 22.6651 146.612 22.6873 146.566 22.7312C146.521 22.7751 146.497 22.8944 146.497 23.0857V26.9068H144.925L143.143 23.3658V25.7827C143.143 25.9741 143.165 26.0933 143.211 26.1386C143.257 26.1839 143.36 26.207 143.519 26.207H143.724V26.9068H141.701V26.207H141.926C142.088 26.207 142.192 26.1839 142.238 26.1372C142.285 26.0906 142.309 25.9727 142.309 25.7827V23.0862C142.309 22.8985 142.286 22.7821 142.241 22.7349C142.195 22.6882 142.089 22.6651 141.926 22.6651H141.701V21.9653H143.971V21.9658ZM150.097 21.9658L151.783 25.2946V23.0862C151.783 22.8874 151.759 22.7673 151.711 22.7266C151.664 22.6864 151.562 22.6651 151.407 22.6651H151.148V21.9653H153.163V22.6651H153C152.84 22.6651 152.737 22.6873 152.692 22.7312C152.646 22.7751 152.623 22.8944 152.623 23.0857V26.9068H151.051L149.269 23.3658V25.7827C149.269 25.9741 149.292 26.0933 149.337 26.1386C149.383 26.1839 149.487 26.207 149.646 26.207H149.85V26.9068H147.828V26.207H148.052C148.214 26.207 148.319 26.1839 148.365 26.1372C148.412 26.0906 148.435 25.9727 148.435 25.7827V23.0862C148.435 22.8985 148.413 22.7821 148.367 22.7349C148.321 22.6882 148.216 22.6651 148.051 22.6651H147.827V21.9653H150.097V21.9658ZM156.727 22.5694C156.418 22.5694 156.192 22.7169 156.05 23.0104C155.91 23.3034 155.839 23.7763 155.839 24.4252C155.839 25.0871 155.909 25.5655 156.049 25.8613C156.189 26.1562 156.412 26.3032 156.72 26.3032C157.032 26.3032 157.258 26.1571 157.398 25.8636C157.538 25.5715 157.608 25.0991 157.608 24.4469C157.608 23.7892 157.538 23.3127 157.398 23.0146C157.258 22.7178 157.035 22.5694 156.727 22.5694ZM154.063 24.44C154.063 23.6228 154.299 22.9804 154.77 22.5154C155.241 22.0499 155.894 21.8184 156.725 21.8184C157.553 21.8184 158.202 22.0504 158.673 22.5154C159.143 22.9804 159.379 23.6228 159.379 24.44C159.379 25.2577 159.143 25.8969 158.672 26.3596C158.2 26.8222 157.547 27.0543 156.713 27.0543C155.887 27.0543 155.24 26.8222 154.769 26.3572C154.298 25.8923 154.063 25.2526 154.063 24.44ZM160.647 23.2692C160.586 23.0603 160.51 22.9082 160.42 22.8116C160.33 22.7146 160.216 22.6656 160.081 22.6656H159.863V21.9658H162.609V22.6656H162.356C162.224 22.6656 162.135 22.679 162.09 22.7072C162.045 22.7345 162.022 22.7835 162.022 22.8523C162.022 22.905 162.029 22.9665 162.042 23.0363C162.042 23.0386 162.042 23.0414 162.042 23.0423L162.766 25.5669L163.527 23.0326C163.537 22.9919 163.546 22.9563 163.552 22.9258C163.556 22.8962 163.56 22.8717 163.56 22.8523C163.56 22.7811 163.537 22.7321 163.492 22.7053C163.446 22.6795 163.354 22.6661 163.216 22.6661H162.986V21.9663H165.117V22.6661H164.95C164.808 22.6661 164.699 22.6993 164.623 22.7654C164.548 22.8306 164.482 22.9568 164.427 23.1449L163.272 26.9082H161.709L160.647 23.2692ZM167.51 24.6092L167.093 23.113L166.703 24.6092H167.51ZM167.337 26.9073V26.2075H167.543C167.718 26.2075 167.823 26.1978 167.862 26.177C167.901 26.1562 167.919 26.1178 167.919 26.06C167.919 26.0208 167.917 25.9842 167.911 25.9496C167.906 25.914 167.899 25.8812 167.89 25.8465L167.727 25.3159H166.492L166.35 25.7883C166.325 25.8608 166.308 25.9172 166.299 25.9579C166.29 25.9995 166.285 26.0365 166.285 26.0698C166.285 26.1141 166.313 26.1474 166.368 26.1714C166.425 26.195 166.503 26.207 166.606 26.207H166.832V26.9068H164.783V26.207H164.953C165.069 26.207 165.166 26.1677 165.245 26.0882C165.324 26.0083 165.392 25.8798 165.45 25.6991L166.656 21.9653H168.314L169.387 25.6843C169.462 25.9297 169.527 26.0781 169.588 26.1298C169.648 26.1811 169.744 26.207 169.878 26.207H170.118V26.9068H167.337V26.9073ZM171.723 22.7391C171.471 22.7391 171.279 22.8311 171.146 23.0141C171.013 23.198 170.946 23.4647 170.946 23.8156V23.8364H170.269V21.9658H175.093V23.8364H174.423V23.8156C174.423 23.4671 174.355 23.2008 174.222 23.0164C174.087 22.8311 173.892 22.7391 173.639 22.7391H173.439V25.7832C173.439 25.9722 173.461 26.0915 173.509 26.1377C173.555 26.1844 173.66 26.2075 173.822 26.2075H174.205V26.9073H171.191V26.2075H171.547C171.7 26.2075 171.8 26.1881 171.85 26.1488C171.899 26.1081 171.922 25.9866 171.922 25.7827V22.7386H171.723V22.7391ZM178.658 21.9658V22.6656H178.433C178.27 22.6656 178.164 22.6887 178.118 22.7354C178.073 22.7821 178.05 22.8985 178.05 23.0867V25.7832C178.05 25.9732 178.074 26.0915 178.121 26.1377C178.168 26.1844 178.272 26.2075 178.434 26.2075H178.658V26.9073H175.932V26.2075H176.16C176.319 26.2075 176.423 26.1844 176.47 26.1377C176.516 26.091 176.54 25.9732 176.54 25.7832V23.0867C176.54 22.899 176.517 22.7825 176.472 22.7354C176.426 22.6887 176.322 22.6656 176.159 22.6656H175.931V21.9658H178.658ZM182.242 22.5694C181.932 22.5694 181.707 22.7169 181.566 23.0104C181.424 23.3034 181.354 23.7763 181.354 24.4252C181.354 25.0871 181.424 25.5655 181.565 25.8613C181.705 26.1562 181.928 26.3032 182.235 26.3032C182.547 26.3032 182.773 26.1571 182.912 25.8636C183.053 25.5715 183.123 25.0991 183.123 24.4469C183.123 23.7892 183.052 23.3127 182.912 23.0146C182.773 22.7178 182.55 22.5694 182.242 22.5694ZM179.578 24.44C179.578 23.6228 179.813 22.9804 180.285 22.5154C180.756 22.0499 181.409 21.8184 182.24 21.8184C183.067 21.8184 183.717 22.0504 184.187 22.5154C184.657 22.9804 184.893 23.6228 184.893 24.44C184.893 25.2577 184.657 25.8969 184.186 26.3596C183.715 26.8222 183.061 27.0543 182.228 27.0543C181.402 27.0543 180.753 26.8222 180.284 26.3572C179.813 25.8923 179.578 25.2526 179.578 24.44ZM188.06 21.9658L189.747 25.2946V23.0862C189.747 22.8874 189.723 22.7673 189.675 22.7266C189.628 22.6864 189.526 22.6651 189.372 22.6651H189.112V21.9653H191.127V22.6651H190.965C190.804 22.6651 190.701 22.6873 190.656 22.7312C190.61 22.7751 190.588 22.8944 190.588 23.0857V26.9068H189.015L187.233 23.3658V25.7827C187.233 25.9741 187.256 26.0933 187.301 26.1386C187.347 26.1839 187.451 26.207 187.61 26.207H187.814V26.9068H185.791V26.207H186.016C186.177 26.207 186.282 26.1839 186.328 26.1372C186.375 26.0906 186.399 25.9727 186.399 25.7827V23.0862C186.399 22.8985 186.376 22.7821 186.33 22.7349C186.285 22.6882 186.179 22.6651 186.016 22.6651H185.791V21.9653H188.06V21.9658Z" fill="#3C3C3B"/>
<path d="M37.5951 15.6297C37.4074 15.7916 37.2655 15.9535 37.1744 16.1176C37.0834 16.2813 37.039 16.4581 37.039 16.6481C37.039 17.018 37.1684 17.3331 37.4305 17.5946C37.6926 17.8544 38.0083 17.9852 38.379 17.9852C38.5088 17.9852 38.6424 17.9632 38.782 17.9207C38.9216 17.8763 39.0713 17.814 39.2262 17.7311C39.0089 17.5415 38.7723 17.28 38.5162 16.9505C38.2583 16.6183 37.9514 16.1782 37.5951 15.6297ZM38.6812 13.72C38.9271 13.6336 39.1115 13.5212 39.2363 13.3852C39.3621 13.2487 39.424 13.089 39.424 12.9065C39.424 12.7406 39.3722 12.6063 39.2692 12.5032C39.1652 12.4018 39.0307 12.3505 38.8684 12.3505C38.684 12.3505 38.5407 12.4001 38.4377 12.5015C38.335 12.6028 38.2842 12.7445 38.2842 12.9267C38.2842 13.0429 38.3175 13.1662 38.3836 13.2988C38.4478 13.433 38.549 13.573 38.6812 13.72ZM43.3107 16.427H44.5092V16.6258C44.5092 17.4783 44.3215 18.1212 43.9467 18.5516C43.5727 18.9843 43.0158 19.1998 42.2772 19.1998C41.8912 19.1998 41.521 19.1462 41.1656 19.0396C40.8111 18.9347 40.4875 18.7803 40.1922 18.5793C39.8201 18.7912 39.4342 18.9475 39.0302 19.0488C38.6272 19.1502 38.1968 19.1998 37.737 19.1998C36.8602 19.1998 36.1678 19.001 35.6654 18.6012C35.1611 18.2019 34.9092 17.6565 34.9092 16.9663C34.9092 16.366 35.076 15.8649 35.4111 15.4673C35.7472 15.0676 36.2824 14.731 37.015 14.4585C36.8555 14.1952 36.7377 13.9447 36.6582 13.7055C36.5787 13.4659 36.538 13.236 36.538 13.0113C36.538 12.5159 36.7321 12.1149 37.1181 11.8073C37.504 11.4997 38.0143 11.3452 38.6466 11.3452C39.2631 11.3452 39.7554 11.4926 40.1205 11.7853C40.4871 12.078 40.6692 12.4685 40.6692 12.9582C40.6692 13.3154 40.5661 13.6375 40.3632 13.9302C40.1575 14.2211 39.8377 14.4976 39.4009 14.7604C39.6223 15.1268 39.8529 15.4673 40.0956 15.7784C40.3378 16.0917 40.5878 16.3748 40.8457 16.6253C41.069 16.3822 41.2294 16.1795 41.325 16.0215C41.4216 15.8649 41.4702 15.7271 41.4702 15.6073C41.4702 15.5169 41.4235 15.4524 41.3306 15.4138C41.2372 15.3734 41.0033 15.3436 40.6248 15.3216V14.3602H43.9513V15.3216C43.6097 15.351 43.3477 15.412 43.1614 15.5059C42.9779 15.5981 42.8207 15.7433 42.6909 15.9421C42.6728 15.9733 42.6326 16.0435 42.5725 16.1523C42.3031 16.6363 42.0059 17.0654 41.6796 17.4393C41.839 17.5902 41.9842 17.7026 42.1126 17.7745C42.2398 17.8465 42.3622 17.8812 42.475 17.8812C42.7371 17.8812 42.9423 17.7614 43.0897 17.52C43.2372 17.2809 43.3107 16.9439 43.3107 16.513V16.427Z" fill="#3C3C3B"/>
<path fill-rule="evenodd" clip-rule="evenodd" d="M22.3119 0H9.10628C4.09806 0 0 4.13733 0 9.19353V19.6065C0 24.6627 4.09806 28.8 9.10628 28.8H22.3119C27.3201 28.8 31.4182 24.6631 31.4182 19.6065V9.19353C31.4182 4.13733 27.3201 0 22.3119 0Z" fill="#56A8DD"/>
<path d="M7.44364 16.8981H10.081C10.5162 18.3566 11.2317 19.4999 12.2379 20.3233C13.2442 21.1467 14.4268 21.5561 15.7904 21.5561C16.6107 21.5561 17.272 21.3725 17.7664 21.01C18.26 20.6475 18.5097 20.1724 18.5097 19.5846C18.5097 18.6765 17.4355 17.9141 15.2835 17.298C14.5808 17.1049 14.033 16.945 13.6338 16.8134C12.3423 16.4088 11.346 16.0652 10.6478 15.7832C9.94596 15.4964 9.44285 15.2281 9.13477 14.9834C8.40059 14.4094 7.8569 13.7786 7.50741 13.0872C7.15875 12.3911 6.98193 11.6051 6.98193 10.7206C6.98193 8.81965 7.66186 7.28118 9.02131 6.11422C10.3758 4.94725 12.1704 4.36377 14.3999 4.36377C15.5324 4.36377 16.5929 4.47686 17.5763 4.70732C18.5552 4.93779 19.506 5.29081 20.4265 5.77066L20.9201 4.81568H23.5392V11.3935H20.4675C20.1681 10.0528 19.6016 9.05485 18.7685 8.39655C17.9391 7.74255 16.8289 7.41318 15.4376 7.41318C14.6218 7.41318 13.9518 7.60625 13.4255 7.99194C12.9 8.37763 12.6375 8.84845 12.6375 9.40829C12.6375 10.2549 13.6479 10.8952 15.6686 11.323C16.1626 11.4361 16.5473 11.5208 16.8239 11.5866C19.6335 12.2595 21.6045 13.0924 22.7371 14.0899C23.8704 15.0875 24.4365 16.4423 24.4365 18.1648C24.4365 20.0752 23.7387 21.5995 22.3474 22.7333C20.9519 23.8672 19.0757 24.4365 16.715 24.4365C15.6367 24.4365 14.5941 24.3097 13.5978 24.0555C12.5965 23.8061 11.6081 23.4205 10.6255 22.9075L9.94554 23.9566H7.44405V16.8981H7.44364Z" fill="white"/>
<path fill-rule="evenodd" clip-rule="evenodd" d="M69.1861 0H55.6136C50.4663 0 46.2544 4.13733 46.2544 9.19353V19.6065C46.2544 24.6627 50.4654 28.8 55.6136 28.8H69.1861C74.3334 28.8 78.5453 24.6631 78.5453 19.6065V9.19353C78.5453 4.13733 74.3334 0 69.1861 0Z" fill="#76B82A"/>
<path d="M68.0725 5.23633V7.95465H67.1387C66.4569 7.95465 66.016 8.0449 65.8263 8.22665C65.6369 8.40757 65.5418 8.8609 65.5418 9.59041V20.068C65.5418 20.8072 65.6411 21.2651 65.8358 21.446C66.0297 21.6273 66.4657 21.718 67.1387 21.718H68.0725V24.4363H56.7271V21.718H57.6754C58.3385 21.718 58.7699 21.6273 58.9646 21.446C59.1585 21.2651 59.2577 20.8072 59.2577 20.068V9.59041C59.2577 8.8609 59.1635 8.40757 58.9733 8.22665C58.7844 8.04532 58.3484 7.95465 57.6754 7.95465H56.7271V5.23633H68.0725Z" fill="white"/>
</svg>
