<svg width="220" height="220" viewBox="0 0 220 220" fill="none" xmlns="http://www.w3.org/2000/svg">
<rect x="172.546" y="145.08" width="10.3889" height="37.3999" rx="5" transform="rotate(45 172.546 145.08)" fill="white"/>
<rect x="67.1353" y="39.6685" width="10.3889" height="37.3999" rx="5" transform="rotate(45 67.1353 39.6685)" fill="white"/>
<rect x="97.6162" y="31.9507" width="10.3889" height="92.8779" rx="5" transform="rotate(45 97.6162 31.9507)" fill="white"/>
<rect x="121.125" y="31.9507" width="10.3889" height="126.744" rx="5" transform="rotate(45 121.125 31.9507)" fill="white"/>
<rect x="138.755" y="37.8276" width="10.3889" height="141.288" rx="5" transform="rotate(45 138.755 37.8276)" fill="white"/>
<rect x="153.446" y="46.6431" width="10.3889" height="151.043" rx="5" transform="rotate(45 153.446 46.6431)" fill="white"/>
<rect x="165.201" y="58.397" width="10.3889" height="151.043" rx="5" transform="rotate(45 165.201 58.397)" fill="white"/>
<rect x="174.015" y="73.0889" width="10.3889" height="141.288" rx="5" transform="rotate(45 174.015 73.0889)" fill="white"/>
<rect x="179.893" y="90.7192" width="10.3889" height="126.744" rx="5" transform="rotate(45 179.893 90.7192)" fill="white"/>
<rect x="179.893" y="114.227" width="10.3889" height="92.7938" rx="5" transform="rotate(45 179.893 114.227)" fill="white"/>
</svg>
