<svg width="30" height="29" viewBox="0 0 30 29" fill="none" xmlns="http://www.w3.org/2000/svg">
<path fill-rule="evenodd" clip-rule="evenodd" d="M15.2002 29C23.2083 29 29.7002 22.5081 29.7002 14.5C29.7002 6.49187 23.2083 0 15.2002 0C7.19207 0 0.700195 6.49187 0.700195 14.5C0.700195 22.5081 7.19207 29 15.2002 29Z" fill="#7B519C"/>
<mask id="mask0" mask-type="alpha" maskUnits="userSpaceOnUse" x="6" y="5" width="18" height="19">
<rect x="6.5" y="5.7998" width="16.8654" height="17.4678" fill="white"/>
</mask>
<g mask="url(#mask0)"></g>
<path fill-rule="evenodd" clip-rule="evenodd" d="M14.0541 6.66106C14.0432 6.9671 14.2739 7.22434 14.5694 7.23562C19.236 7.41375 21.4909 9.91222 21.4909 14.9221C21.4909 15.2283 21.7306 15.4766 22.0263 15.4766C22.322 15.4766 22.5617 15.2283 22.5617 14.9221C22.5617 9.32297 19.8585 6.32772 14.6088 6.12734C14.3133 6.11606 14.065 6.35501 14.0541 6.66106ZM11.7286 17.8013C13.8888 20.2148 18.6174 22.3673 18.6174 22.3673C18.6174 22.3673 18.9545 22.4648 19.3278 22.4648C19.701 22.4648 20.1968 22.2157 20.1968 22.2157C20.1968 22.2157 20.6918 21.8118 21.4482 20.882C22.2046 19.9521 21.3722 18.9085 21.3722 18.9085C21.3722 18.9085 20.0417 17.6733 19.0299 17.0759C18.0181 16.4785 17.5084 17.2333 17.5084 17.2333C17.5084 17.2333 17.0848 17.8013 16.7619 18.1244C16.4391 18.4475 15.6033 18.1244 15.6033 18.1244C15.6033 18.1244 13.7491 17.2333 13.1431 16.4874C12.5371 15.7414 12.0926 15.0426 11.6371 14.0001C11.1815 12.9577 11.6371 12.4746 11.6371 12.4746C11.6371 12.4746 11.823 12.3437 12.4435 11.8347C13.064 11.3256 12.5315 10.3104 12.5315 10.3104C12.5315 10.3104 11.4439 8.5722 10.8051 7.61909C10.1662 6.66598 9.13201 7.43342 9.13201 7.43342L8.04411 8.45286C7.09809 9.33938 7.65952 10.9304 7.65952 10.9304C7.65952 10.9304 9.56845 15.3877 11.7286 17.8013ZM18.1772 14.0146C18.4721 14.0371 18.7288 13.8078 18.7505 13.5024C18.8854 11.6068 17.8928 10.4457 15.9491 10.1768C15.656 10.1363 15.3867 10.3495 15.3475 10.653C15.3084 10.9566 15.5142 11.2356 15.8073 11.2761C17.2081 11.4699 17.7743 12.1322 17.6826 13.4208C17.6609 13.7262 17.8823 13.9921 18.1772 14.0146ZM15.1942 9.25518C14.899 9.23821 14.6729 8.97656 14.6893 8.67078C14.7057 8.365 14.9583 8.13087 15.2535 8.14784C18.8077 8.35212 20.6635 10.3997 20.6635 14.1125C20.6635 14.4188 20.4238 14.6671 20.1281 14.6671C19.8324 14.6671 19.5927 14.4188 19.5927 14.1125C19.5927 10.9865 18.1791 9.42673 15.1942 9.25518Z" fill="white"/>
</svg>
