<svg width="30" height="29" viewBox="0 0 30 29" fill="none" xmlns="http://www.w3.org/2000/svg">
<path fill-rule="evenodd" clip-rule="evenodd" d="M14.8999 29C22.908 29 29.3999 22.5081 29.3999 14.5C29.3999 6.49189 22.908 0 14.8999 0C6.89179 0 0.399902 6.49189 0.399902 14.5C0.399902 22.5081 6.89179 29 14.8999 29Z" fill="#25D366"/>
<path fill-rule="evenodd" clip-rule="evenodd" d="M14.9701 23.1175H14.9666C13.511 23.117 12.0807 22.7535 10.8103 22.0639L6.19971 23.2676L7.43358 18.7823C6.67247 17.4696 6.27197 15.9806 6.27263 14.455C6.27453 9.68256 10.1762 5.7998 14.9701 5.7998C17.2967 5.8008 19.4805 6.70222 21.1225 8.33834C22.7646 9.97437 23.6684 12.1491 23.6675 14.4618C23.6655 19.2332 19.7655 23.1155 14.9701 23.1175ZM10.8723 20.7759L11.144 20.9371C12.2863 21.6147 13.5957 21.9732 14.9307 21.9737H14.9337C19.0345 21.9737 22.372 18.6373 22.3736 14.5365C22.3744 12.5492 21.6013 10.6806 20.1966 9.27481C18.7919 7.86901 16.9239 7.09444 14.9367 7.09375C10.8329 7.09375 7.49528 10.4298 7.49365 14.5304C7.49308 15.9357 7.88642 17.3043 8.63117 18.4884L8.80806 18.7698L8.05647 21.5142L10.8723 20.7759ZM19.7539 16.5763C19.6982 16.4833 19.5497 16.4275 19.3269 16.3159C19.104 16.2043 18.0084 15.6651 17.8041 15.5907C17.5999 15.5164 17.4513 15.4792 17.3027 15.7022C17.1542 15.9254 16.7271 16.4275 16.5971 16.5763C16.4671 16.725 16.3371 16.7436 16.1143 16.632C15.8915 16.5204 15.1734 16.2851 14.3222 15.5257C13.6598 14.9347 13.2125 14.2048 13.0825 13.9816C12.9525 13.7585 13.0687 13.6379 13.1802 13.5267C13.2805 13.4268 13.4031 13.2663 13.5145 13.1362C13.6259 13.0061 13.6631 12.9131 13.7374 12.7644C13.8116 12.6156 13.7745 12.4855 13.7188 12.3739C13.6631 12.2623 13.2174 11.1652 13.0317 10.7189C12.8508 10.2843 12.6671 10.3431 12.5303 10.3363C12.4005 10.3297 12.2517 10.3284 12.1032 10.3284C11.9546 10.3284 11.7132 10.3842 11.509 10.6073C11.3047 10.8304 10.729 11.3697 10.729 12.4667C10.729 13.5639 11.5275 14.6238 11.639 14.7725C11.7503 14.9214 13.2103 17.1727 15.4458 18.1381C15.9775 18.3678 16.3926 18.505 16.7162 18.6077C17.25 18.7774 17.7359 18.7534 18.1198 18.696C18.5479 18.6321 19.4382 18.1568 19.624 17.6362C19.8096 17.1155 19.8096 16.6692 19.7539 16.5763Z" fill="#FDFDFD"/>
</svg>
