<svg width="14" height="14" viewBox="0 0 14 14" fill="none" xmlns="http://www.w3.org/2000/svg">
<path d="M12.0625 9.74408C11.2168 9.02072 10.3585 8.58256 9.52314 9.30482L9.02433 9.74135C8.65938 10.0582 7.98082 11.5388 5.35729 8.52082C2.7343 5.50665 4.2952 5.03735 4.6607 4.7232L5.16225 4.28613C5.99323 3.56223 5.67963 2.65093 5.08029 1.71286L4.71862 1.14466C4.11655 0.208782 3.46094 -0.405852 2.62777 0.316958L2.17758 0.710323C1.80935 0.978577 0.780041 1.85054 0.530363 3.50705C0.229875 5.49464 1.17778 7.77069 3.34948 10.268C5.51846 12.7664 7.64209 14.0214 9.65372 13.9995C11.3255 13.9815 12.3352 13.0844 12.6509 12.7582L13.1028 12.3643C13.9338 11.6421 13.4175 10.9067 12.5712 10.1817L12.0625 9.74408Z" fill="#76B82A"/>
</svg>
