<svg width="29" height="29" viewBox="0 0 29 29" fill="none" xmlns="http://www.w3.org/2000/svg">
<path fill-rule="evenodd" clip-rule="evenodd" d="M14.5 29C22.5081 29 29 22.5081 29 14.5C29 6.49187 22.5081 0 14.5 0C6.49187 0 0 6.49187 0 14.5C0 22.5081 6.49187 29 14.5 29Z" fill="#1E96C8"/>
<mask id="mask0" mask-type="alpha" maskUnits="userSpaceOnUse" x="5" y="5" width="18" height="19">
<rect x="5.7998" y="5.7998" width="16.8654" height="17.4678" fill="white"/>
</mask>
<g mask="url(#mask0)"></g>
<path fill-rule="evenodd" clip-rule="evenodd" d="M20.5503 9.33828L18.2884 20.2994L18.1385 20.6084C18.1385 20.6084 17.9793 20.793 17.7788 20.8437C17.5784 20.8943 17.0296 20.6309 17.0296 20.6309L13.8084 18.1372L12.0206 19.9179C12.0206 19.9179 11.7848 20.1109 11.5528 20.1109C11.3207 20.1109 11.1474 19.9663 11.1474 19.9663L9.92952 15.6775L6.57022 14.5673C6.57022 14.5673 6.07373 14.4035 6.07373 14.159C6.07373 13.9145 6.57022 13.5906 6.57022 13.5906L19.7304 8.32006C19.7304 8.32006 20.1351 8.23757 20.364 8.47432C20.5929 8.71106 20.5503 9.33828 20.5503 9.33828ZM17.5057 10.6608L10.8535 15.004L10.3438 15.3461L11.2823 19.0731C11.2823 19.0731 11.3701 19.3674 11.5173 19.3674C11.6644 19.3674 11.8301 19.0731 11.8301 19.0731L12.1152 16.2769C12.1152 16.2769 17.8476 10.9248 17.9052 10.8396C17.9629 10.7545 17.9941 10.6608 17.9941 10.6608C17.9941 10.6608 17.9497 10.5547 17.8476 10.5547C17.7455 10.5547 17.5057 10.6608 17.5057 10.6608Z" fill="white"/>
</svg>
